<svg width="30" height="32" viewBox="0 0 30 32" fill="none" xmlns="http://www.w3.org/2000/svg">
<g filter="url(#filter0_d)">
<path d="M13.9666 23.518C14.3866 23.5077 14.7896 23.3404 15.1044 23.0455C15.4191 22.7506 15.6254 22.3473 15.6866 21.9067H12.1799C12.2429 22.3592 12.4588 22.7721 12.7875 23.0685C13.1161 23.3648 13.5352 23.5246 13.9666 23.518Z" fill="white"/>
<path d="M13.9666 23.518C14.3866 23.5077 14.7896 23.3404 15.1044 23.0455C15.4191 22.7506 15.6254 22.3473 15.6866 21.9067H12.1799C12.2429 22.3592 12.4588 22.7721 12.7875 23.0685C13.1161 23.3648 13.5352 23.5246 13.9666 23.518Z" stroke="white"/>
<path d="M23.7718 18.4149C23.1246 17.8254 22.558 17.1496 22.0872 16.4057C21.5733 15.3788 21.2653 14.2573 21.1812 13.1072V9.71956C21.1785 9.30807 21.1426 8.89752 21.0738 8.49206C20.5456 8.38417 20.0379 8.18964 19.5705 7.91603C19.7486 8.50224 19.8392 9.11259 19.8389 9.72642V13.114C19.9212 14.5171 20.2989 15.8855 20.9463 17.1257C21.4097 17.8759 21.9595 18.5666 22.5839 19.183H5.39597C6.02041 18.5666 6.5702 17.8759 7.03356 17.1257C7.68095 15.8855 8.05868 14.5171 8.14094 13.114V9.71956C8.13741 8.92593 8.28712 8.13938 8.5815 7.40495C8.87589 6.67052 9.30917 6.00264 9.85652 5.43954C10.4039 4.87645 11.0546 4.4292 11.7713 4.12341C12.4881 3.81762 13.2568 3.65929 14.0336 3.6575C15.1703 3.65843 16.2816 4.00192 17.2282 4.64498C17.1238 4.25341 17.0653 3.85058 17.0537 3.44492V3.01289C16.3529 2.66066 15.6001 2.42896 14.8255 2.32714V1.46309C14.8255 1.22029 14.7311 0.987432 14.5631 0.815746C14.3951 0.64406 14.1672 0.547607 13.9295 0.547607C13.6919 0.547607 13.464 0.64406 13.296 0.815746C13.128 0.987432 13.0336 1.22029 13.0336 1.46309V2.36143C11.2991 2.61142 9.71179 3.49411 8.56458 4.84655C7.41736 6.19899 6.78774 7.92984 6.79195 9.71956V13.1072C6.70789 14.2573 6.39985 15.3788 5.88591 16.4057C5.42341 17.1479 4.8659 17.8236 4.22819 18.4149C4.1566 18.4792 4.09922 18.5583 4.05988 18.647C4.02053 18.7356 4.00012 18.8319 4 18.9292V19.8619C4 20.0437 4.07071 20.2182 4.19657 20.3468C4.32244 20.4754 4.49314 20.5476 4.67114 20.5476H23.3289C23.5069 20.5476 23.6776 20.4754 23.8034 20.3468C23.9293 20.2182 24 20.0437 24 19.8619V18.9292C23.9999 18.8319 23.9795 18.7356 23.9401 18.647C23.9008 18.5583 23.8434 18.4792 23.7718 18.4149Z" fill="white"/>
<path d="M21.9666 7.06667C23.8076 7.06667 25.2999 5.48474 25.2999 3.53333C25.2999 1.58193 23.8076 0 21.9666 0C20.1257 0 18.6333 1.58193 18.6333 3.53333C18.6333 5.48474 20.1257 7.06667 21.9666 7.06667Z" fill="url(#paint0_linear)"/>
<path d="M21.9666 7.06667C23.8076 7.06667 25.2999 5.48474 25.2999 3.53333C25.2999 1.58193 23.8076 0 21.9666 0C20.1257 0 18.6333 1.58193 18.6333 3.53333C18.6333 5.48474 20.1257 7.06667 21.9666 7.06667Z" stroke="white"/>
</g>
<defs>
<filter id="filter0_d" x="0" y="0" width="29.2999" height="31.5182" filterUnits="userSpaceOnUse" color-interpolation-filters="sRGB">
<feFlood flood-opacity="0" result="BackgroundImageFix"/>
<feColorMatrix in="SourceAlpha" type="matrix" values="0 0 0 0 0 0 0 0 0 0 0 0 0 0 0 0 0 0 127 0"/>
<feOffset dy="4"/>
<feGaussianBlur stdDeviation="2"/>
<feColorMatrix type="matrix" values="0 0 0 0 0 0 0 0 0 0 0 0 0 0 0 0 0 0 0.25 0"/>
<feBlend mode="normal" in2="BackgroundImageFix" result="effect1_dropShadow"/>
<feBlend mode="normal" in="SourceGraphic" in2="effect1_dropShadow" result="shape"/>
</filter>
<linearGradient id="paint0_linear" x1="21.9666" y1="0" x2="21.9666" y2="7.06667" gradientUnits="userSpaceOnUse">
<stop stop-color="#326CFF"/>
<stop offset="1" stop-color="#26FFF2"/>
</linearGradient>
</defs>
</svg>
